# xmcd
#
# Track frame offsets: 
#        150
#        36504
#        69173
#        106556
#        139824
#        161699
#        189759
#        221819
#        262554
#        304259
#
# Disc length: 4574 seconds
#
# Revision: 7
# Processed by: cddbd v1.5.2PL0 Copyright (c) Steve Scherf et al.
# Submitted via: ExactAudioCopyFreeDBPlugin 1.0
#
DISCID=8011dc0a
DTITLE=Andreas Fröhlich - Eragon [CD13)
DYEAR=2005
DGENRE=Hörbuch
TTITLE0=Die Flucht durchs Tal (Teil 1)
TTITLE1=Die Flucht durchs Tal (Teil 2)
TTITLE2=Die Flucht durchs Tal (Teil 3)
TTITLE3=Die Flucht durchs Tal (Teil 4)
TTITLE4=Die Flucht durchs Tal (Teil 5)
TTITLE5=Gefahr! (Teil 1)
TTITLE6=Gefahr! (Teil 2)
TTITLE7=Gefahr! (Teil 3)
TTITLE8=Auf der Jagd nach Antworten (Teil 1)
TTITLE9=Auf der Jagd nach Antworten (Teil 2)
EXTD=
EXTT0=
EXTT1=
EXTT2=
EXTT3=
EXTT4=
EXTT5=
EXTT6=
EXTT7=
EXTT8=
EXTT9=
PLAYORDER=
